<svg height="443pt" viewBox="0 -35 443.259 443" width="443pt" xmlns="http://www.w3.org/2000/svg"><path d="M436.004 346.215c.008 11.039-8.938 19.992-19.977 20l-139.918.078c-11.039.008-19.992-8.938-20-19.977l-.02-40.777-.03-38.398h.011l77.235 27.843.007 17.75 25.668-.02-.011-17.878h.152l.29-.102 76.542-27.691zm0 0" fill="#6fe3ff"/><path d="M376.938 224.727l39.007-.02c11.035-.008 19.989 8.93 20 19.965v.012l.008 22.359-76.543 27.691-.289.102h-.152v-14.371l-25.676.02.012 14.5-77.235-27.844h-.011l-.008-22.344c-.004-11.04 8.937-19.996 19.976-20.008l41.008-.023zm0 0" fill="#6fe3ff"/><path d="M346.797 195.766h.191c16.157 0 29.407 12.812 29.95 28.96l-59.903.04c.52-16.09 13.66-28.899 29.762-29zm12.172 99.07l.011 17.879-25.667.02-.008-17.75-.012-14.5 25.676-.02zm0 0" fill="#6fe3ff"/><path d="M346.797 185.86v9.906c-16.102.101-29.242 12.91-29.762 29l-41.008.023c-11.039.012-19.98 8.969-19.976 20.008l.008 22.344.03 38.398H46.974c-22.078 0-39.977-17.898-39.977-39.976V88.398h339.8zm0 0" fill="#e48e66"/><path d="M346.797 47.082v41.316H6.997V47.082c0-22.078 17.898-39.977 39.976-39.977H306.82c22.078 0 39.977 17.899 39.977 39.977zM169.28 48.301c.024-6.934-5.578-12.578-12.511-12.602-6.938-.027-12.579 5.578-12.606 12.512-.023 6.934 5.578 12.578 12.516 12.601h.007c6.934.02 12.57-5.582 12.594-12.511zm-56.406-.18c.02-6.934-5.59-12.574-12.523-12.594-6.934-.02-12.575 5.59-12.594 12.524-.02 6.933 5.59 12.574 12.523 12.594s12.574-5.586 12.594-12.524zm-56.406-.18c.015-6.933-5.59-12.574-12.524-12.593-6.937-.02-12.574 5.59-12.593 12.523-.02 6.93 5.582 12.566 12.511 12.594 6.938.023 12.578-5.578 12.606-12.512v-.012zm0 0" fill="#f8ec7d"/><path d="M156.77 35.7c6.933.023 12.535 5.667 12.511 12.6-.027 6.934-5.668 12.54-12.601 12.513-6.934-.024-12.535-5.66-12.516-12.59.02-6.938 5.656-12.543 12.594-12.524zm-56.418-.173c6.933.02 12.543 5.66 12.523 12.594s-5.66 12.543-12.594 12.524c-6.937-.02-12.543-5.66-12.523-12.594v-.012c.023-6.93 5.66-12.531 12.594-12.512zm-56.407-.179c6.934.02 12.54 5.66 12.524 12.593-.02 6.934-5.66 12.543-12.594 12.524-6.938-.02-12.543-5.66-12.523-12.594v-.012c.023-6.93 5.66-12.53 12.593-12.511zm0 0" fill="#e48e66"/><g fill="#63316d"><path d="M276.102 373.29c-14.875 0-26.98-12.099-26.989-26.97l-.05-79.172v-.003l-.008-22.348c-.004-14.871 12.093-26.988 26.965-27.004l139.921-.082h.028c7.191 0 13.96 2.8 19.054 7.887 5.098 5.093 7.91 11.863 7.914 19.07L443 346.211c.008 14.883-12.094 26.992-26.973 27l-139.918.082c0-.004-.007-.004-.007-.004zm-13.047-106.153l.05 79.175c.004 7.16 5.832 12.985 12.993 12.985h.007l139.918-.078c7.164-.004 12.989-5.836 12.985-13l-.059-101.531a12.9 12.9 0 00-3.812-9.188 12.885 12.885 0 00-9.172-3.797h-.012l-139.922.078c-7.16.012-12.988 5.848-12.984 13.012zm0 0"/><path d="M359.121 301.832a6.994 6.994 0 01-6.61-4.703 6.99 6.99 0 014.317-8.902l.29-.102 76.456-27.66a6.998 6.998 0 114.52 13.242l-76.684 27.738a6.907 6.907 0 01-2.289.387zm-25.816.152a6.97 6.97 0 01-2.371-.418l-77.239-27.843a6.996 6.996 0 014.746-13.16l77.235 27.84a7 7 0 014.21 8.956 7.006 7.006 0 01-6.581 4.625zm0 0"/><path d="M333.313 319.73a6.994 6.994 0 01-6.992-6.992l-.024-32.25a7 7 0 016.992-7l25.672-.023h.008a7.01 7.01 0 014.945 2.047 7.002 7.002 0 012.05 4.949l.013 32.25a7 7 0 01-6.993 7l-25.664.02h-.007zm6.984-32.257l.004 7.507.004 10.754 11.675-.007-.007-18.262zM324 225.766h-13.992c0-.446.012-.883.035-1.317a36.858 36.858 0 0136.707-35.68h.238c20.008.004 36.219 15.653 36.938 35.637.027.434.039.871.039 1.32h-13.992c0-.199-.008-.394-.02-.585-.004-.059-.004-.118-.008-.176a22.894 22.894 0 00-22.96-22.207h-.188c-12.348.082-22.371 9.847-22.77 22.234l-.011.188a9.692 9.692 0 00-.016.586zm0 0"/><path d="M256.09 312.535H46.973C21.07 312.535 0 291.465 0 265.562V47.083C0 21.18 21.07.109 46.973.109H306.82c25.903 0 46.973 21.07 46.973 46.973v148.711a6.997 6.997 0 01-13.992 0V47.082c0-18.187-14.797-32.98-32.98-32.98H46.972c-18.188 0-32.98 14.793-32.98 32.98v218.48c0 18.188 14.792 32.981 32.98 32.981H256.09a6.997 6.997 0 010 13.992zm0 0"/><path d="M346.797 95.395H6.997a6.997 6.997 0 010-13.993h339.8a6.997 6.997 0 010 13.993zM100.316 67.64h-.054a19.422 19.422 0 01-13.809-5.765 19.424 19.424 0 01-5.691-13.844c.031-10.761 8.797-19.5 19.554-19.5h.055c10.781.032 19.527 8.824 19.5 19.606v.004c-.031 10.761-8.797 19.5-19.555 19.5zm0-25.117a5.569 5.569 0 00-5.562 5.547 5.533 5.533 0 001.617 3.938 5.524 5.524 0 003.93 1.64h.015a5.572 5.572 0 005.563-5.546 5.57 5.57 0 00-5.547-5.579h-.016zm12.559 5.598h.008zM43.91 67.46h-.055c-10.78-.03-19.53-8.827-19.5-19.608.032-10.766 8.797-19.5 19.555-19.5h.055c10.777.035 19.52 8.832 19.496 19.601v.004c-.027 10.766-8.797 19.504-19.55 19.504zm-.004-25.116a5.568 5.568 0 00-5.558 5.547 5.572 5.572 0 005.547 5.578h.015a5.572 5.572 0 005.563-5.547 5.578 5.578 0 00-5.551-5.578h-.016zM56.47 47.94h.008zm100.253 19.869h-.07a19.424 19.424 0 01-13.805-5.778 19.445 19.445 0 01-5.68-13.847 19.44 19.44 0 015.777-13.805c3.707-3.68 8.657-5.68 13.848-5.676a19.389 19.389 0 0113.797 5.762 19.425 19.425 0 015.687 13.836v.023c-.039 10.758-8.804 19.485-19.554 19.485zm.004-25.114c-1.48 0-2.872.57-3.922 1.614a5.535 5.535 0 00-1.645 3.925 5.567 5.567 0 005.543 5.582h.02a5.566 5.566 0 005.562-5.53v-.005a5.527 5.527 0 00-1.617-3.949 5.512 5.512 0 00-3.922-1.637h-.02zm12.554 5.606h.008zm0 0"/></g></svg>